<?xml version="1.0" encoding="UTF-8" standalone="no"?>
<!-- Created with Inkscape (http://www.inkscape.org/) -->

<svg
   xmlns:dc="http://purl.org/dc/elements/1.1/"
   xmlns:cc="http://creativecommons.org/ns#"
   xmlns:rdf="http://www.w3.org/1999/02/22-rdf-syntax-ns#"
   xmlns:svg="http://www.w3.org/2000/svg"
   xmlns="http://www.w3.org/2000/svg"
   xmlns:sodipodi="http://sodipodi.sourceforge.net/DTD/sodipodi-0.dtd"
   xmlns:inkscape="http://www.inkscape.org/namespaces/inkscape"
   x="0px"
   y="0px"
   viewBox="0 0 300 40"
   enable-background="new 0 0 300 40"
   id="svg3779"
   version="1.1"
   inkscape:version="0.48.5 r10040"
   sodipodi:docname="leafs.svg">
  <defs
     id="defs3781">
    <inkscape:path-effect
       is_visible="true"
       id="path-effect5768"
       effect="spiro" />
    <inkscape:path-effect
       is_visible="true"
       id="path-effect5764"
       effect="spiro" />
    <inkscape:path-effect
       is_visible="true"
       id="path-effect5760"
       effect="spiro" />
    <inkscape:path-effect
       is_visible="true"
       id="path-effect5756"
       effect="spiro" />
    <inkscape:path-effect
       is_visible="true"
       id="path-effect5752"
       effect="spiro" />
    <inkscape:path-effect
       is_visible="true"
       id="path-effect5748"
       effect="spiro" />
    <inkscape:path-effect
       is_visible="true"
       id="path-effect5744"
       effect="spiro" />
    <inkscape:path-effect
       is_visible="true"
       id="path-effect5740"
       effect="spiro" />
    <inkscape:path-effect
       is_visible="true"
       id="path-effect5736"
       effect="spiro" />
    <inkscape:path-effect
       is_visible="true"
       id="path-effect5732"
       effect="spiro" />
    <inkscape:path-effect
       is_visible="true"
       id="path-effect5728"
       effect="spiro" />
    <inkscape:path-effect
       is_visible="true"
       id="path-effect5724"
       effect="spiro" />
    <inkscape:path-effect
       is_visible="true"
       id="path-effect5720"
       effect="spiro" />
    <inkscape:path-effect
       is_visible="true"
       id="path-effect5716"
       effect="spiro" />
    <inkscape:path-effect
       is_visible="true"
       id="path-effect5712"
       effect="spiro" />
    <inkscape:path-effect
       effect="spiro"
       id="path-effect3853"
       is_visible="true" />
  </defs>
  <sodipodi:namedview
     id="base"
     pagecolor="#ffffff"
     bordercolor="#666666"
     borderopacity="1.0"
     inkscape:pageopacity="0.0"
     inkscape:pageshadow="2"
     inkscape:zoom="1.979899"
     inkscape:cx="204.70999"
     inkscape:cy="-21.346569"
     inkscape:document-units="px"
     inkscape:current-layer="layer1"
     showgrid="false"
     inkscape:window-width="1366"
     inkscape:window-height="716"
     inkscape:window-x="-8"
     inkscape:window-y="-8"
     inkscape:window-maximized="1"
     inkscape:snap-page="false"
     inkscape:snap-grids="true"
     inkscape:snap-to-guides="true" />
  <metadata
     id="metadata3784">
    <rdf:RDF>
      <cc:Work
         rdf:about="">
        <dc:format>image/svg+xml</dc:format>
        <dc:type
           rdf:resource="http://purl.org/dc/dcmitype/StillImage" />
        <dc:title></dc:title>
      </cc:Work>
    </rdf:RDF>
  </metadata>
  <g
     inkscape:label="Layer 1"
     inkscape:groupmode="layer"
     id="layer1"
     transform="translate(0,-1012.3622)">
    <path
       inkscape:connector-curvature="0"
       inkscape:original-d="m 283.23121,1040.0189 c 1.63924,-0.6605 5.25534,-2.7929 6.00102,-4.8501 0.1805,-0.498 1.16728,-1.2331 1.41848,-1.7606 0.51696,-1.0856 0.88509,-2.1354 1.37299,-3.16 1.18356,-2.4853 -1.62031,-6.6962 -3.53786,-7.686 -0.83966,0.4986 -1.57152,1.413 -2.29666,2.1651 -0.41606,0.4316 -1.85209,1.6114 -2.03195,2.1076 -1.01319,2.7952 -4.03849,6.361 -3.10044,9.0021 0.21644,0.6094 0.69593,1.2792 0.8002,1.9185 0.1337,0.8198 0.68098,1.8638 1.37422,2.2634 z"
       inkscape:path-effect="#path-effect5712"
       id="use5369"
       d="m 283.23121,1040.0189 c 2.22712,-1.3056 4.25731,-2.9464 6.00102,-4.8501 0.5095,-0.5562 0.99559,-1.136 1.41848,-1.7606 0.64814,-0.9574 1.14698,-2.0262 1.37299,-3.16 0.29468,-1.4783 0.10965,-3.0483 -0.52063,-4.4176 -0.63028,-1.3693 -1.7026,-2.5309 -3.01723,-3.2684 -0.77839,0.7079 -1.54411,1.4298 -2.29666,2.1651 -0.69814,0.6822 -1.38538,1.3764 -2.03195,2.1076 -1.09652,1.2401 -2.08377,2.6024 -2.69888,4.1393 -0.61511,1.5368 -0.83837,3.2661 -0.40156,4.8628 0.1832,0.6697 0.47739,1.3038 0.8002,1.9185 0.41066,0.7819 0.86991,1.5383 1.37422,2.2634"
       style="color:#000000;fill:#beff00;fill-opacity:1;stroke:#beff00;stroke-width:5.23807955;stroke-linecap:butt;stroke-linejoin:miter;stroke-miterlimit:4;stroke-opacity:1;stroke-dasharray:none;stroke-dashoffset:0;marker:none;visibility:visible;display:inline;overflow:visible;enable-background:accumulate" />
    <path
       inkscape:connector-curvature="0"
       inkscape:original-d="m 274.34649,1029.9831 c 1.20201,1.2383 4.46431,3.7206 6.59935,3.6357 0.51687,-0.021 1.54554,0.6003 2.11516,0.6327 1.17223,0.067 2.25723,0.012 3.36354,0.075 2.68373,0.1529 5.45599,-3.9359 5.6433,-6.0348 -0.76068,-0.5751 -1.8574,-0.8993 -2.80498,-1.2774 -0.54367,-0.2169 -2.14024,-1.0798 -2.65524,-1.0593 -2.90097,0.1154 -7.2411,-1.3039 -9.28277,0.5188 -0.47108,0.4206 -0.89967,1.1013 -1.43918,1.4314 -0.69187,0.4234 -1.43374,1.3035 -1.53918,2.0777 z"
       inkscape:path-effect="#path-effect5716"
       id="use5371"
       d="m 274.34649,1029.9831 c 2.00218,1.5317 4.23479,2.7617 6.59935,3.6357 0.6909,0.2554 1.39438,0.4809 2.11516,0.6327 1.1047,0.2326 2.2551,0.2891 3.36354,0.075 1.44522,-0.2792 2.79631,-1.0259 3.80167,-2.101 1.00536,-1.0751 1.65986,-2.4731 1.84163,-3.9338 -0.92727,-0.4425 -1.86247,-0.8684 -2.80498,-1.2774 -0.87435,-0.3794 -1.75557,-0.7446 -2.65524,-1.0593 -1.52579,-0.5337 -3.12176,-0.9236 -4.73817,-0.9126 -1.6164,0.011 -3.26225,0.4473 -4.5446,1.4314 -0.53783,0.4127 -1.0026,0.9127 -1.43918,1.4314 -0.55539,0.6598 -1.06977,1.3542 -1.53918,2.0777 l 0,2e-4"
       style="color:#000000;fill:#beff00;fill-opacity:1;stroke:#beff00;stroke-width:5.11494875;stroke-linecap:butt;stroke-linejoin:miter;stroke-miterlimit:4;stroke-opacity:1;stroke-dasharray:none;stroke-dashoffset:0;marker:none;visibility:visible;display:inline;overflow:visible;enable-background:accumulate" />
    <path
       inkscape:connector-curvature="0"
       inkscape:original-d="m 283.88685,1031.3815 c -0.1719,-1.2886 -1.03255,-4.2545 -2.36278,-5.1609 -0.32204,-0.2195 -0.66602,-1.0567 -0.9962,-1.3319 -0.67947,-0.5663 -1.36059,-1.0201 -2.00184,-1.5545 -1.55557,-1.2966 -5.0677,-0.066 -6.1227,1.1204 0.20234,0.6893 0.7206,1.3776 1.12446,2.0315 0.23172,0.3751 0.81081,1.6137 1.13168,1.8323 1.80743,1.2316 3.79729,4.0377 5.85062,3.8506 0.47378,-0.043 1.03852,-0.2628 1.51316,-0.2206 0.60867,0.054 1.45245,-0.1456 1.8636,-0.5669 z"
       inkscape:path-effect="#path-effect5720"
       id="use5373"
       d="m 283.88685,1031.3815 c -0.52457,-1.8252 -1.32391,-3.5712 -2.36278,-5.1609 -0.30356,-0.4645 -0.62811,-0.9166 -0.9962,-1.3319 -0.56415,-0.6364 -1.23498,-1.1868 -2.00184,-1.5545 -0.99987,-0.4795 -2.15254,-0.6338 -3.24331,-0.4342 -1.09078,0.1996 -2.11411,0.7521 -2.87939,1.5546 0.36266,0.6838 0.73756,1.3611 1.12446,2.0315 0.35891,0.6219 0.7284,1.2382 1.13168,1.8323 0.68394,1.0075 1.47491,1.9595 2.45808,2.678 0.98317,0.7185 2.17496,1.1929 3.39254,1.1726 0.51067,-0.01 1.01625,-0.1026 1.51316,-0.2206 0.63213,-0.1502 1.25493,-0.3396 1.8636,-0.5669"
       style="color:#000000;fill:#beff00;fill-opacity:1;stroke:#beff00;stroke-width:3.85332751;stroke-linecap:butt;stroke-linejoin:miter;stroke-miterlimit:4;stroke-opacity:1;stroke-dasharray:none;stroke-dashoffset:0;marker:none;visibility:visible;display:inline;overflow:visible;enable-background:accumulate" />
    <path
       inkscape:connector-curvature="0"
       inkscape:original-d="m 128.29483,1031.7929 c 1.20203,0.898 4.34374,2.581 6.16501,2.2147 0.44091,-0.089 1.40931,0.3031 1.90279,0.2527 1.01554,-0.1037 1.93953,-0.2996 2.89796,-0.3975 2.325,-0.2374 4.14333,-4.1285 4.01581,-5.9561 -0.73205,-0.3893 -1.71814,-0.517 -2.58357,-0.7114 -0.49654,-0.1115 -1.98575,-0.633 -2.42506,-0.5447 -2.47464,0.4977 -6.39564,-0.1246 -7.89803,1.7207 -0.34666,0.4257 -0.62111,1.069 -1.03892,1.4265 -0.53581,0.4586 -1.05183,1.316 -1.03599,1.9951 z"
       inkscape:path-effect="#path-effect5724"
       id="use5375"
       d="m 128.29483,1031.7929 c 1.92933,1.0399 4.01499,1.7891 6.16501,2.2147 0.62822,0.1243 1.26315,0.2214 1.90279,0.2527 0.98035,0.048 1.97575,-0.061 2.89796,-0.3975 1.20241,-0.4382 2.25979,-1.2648 2.97522,-2.3259 0.71543,-1.061 1.08525,-2.3512 1.04059,-3.6302 -0.85685,-0.2525 -1.71823,-0.4897 -2.58357,-0.7114 -0.80276,-0.2057 -1.60945,-0.3981 -2.42506,-0.5447 -1.38322,-0.2486 -2.80693,-0.364 -4.19311,-0.1325 -1.38618,0.2315 -2.73919,0.8322 -3.70492,1.8532 -0.40503,0.4282 -0.73536,0.9213 -1.03892,1.4265 -0.38618,0.6427 -0.7324,1.3095 -1.03599,1.9951"
       style="color:#000000;fill:#beff00;fill-opacity:1;stroke:#beff00;stroke-width:4.44707346;stroke-linecap:butt;stroke-linejoin:miter;stroke-miterlimit:4;stroke-opacity:1;stroke-dasharray:none;stroke-dashoffset:0;marker:none;visibility:visible;display:inline;overflow:visible;enable-background:accumulate" />
    <path
       inkscape:connector-curvature="0"
       inkscape:original-d="m 157.58009,1018.3721 c 0.20025,1.9636 1.36681,6.5049 3.34283,7.943 0.47838,0.3481 0.96101,1.6349 1.44912,2.068 1.00447,0.8913 2.01675,1.6119 2.96472,2.4532 2.29963,2.0407 7.68724,0.3382 9.34402,-1.4123 -0.27464,-1.0556 -1.02873,-2.1244 -1.61084,-3.1357 -0.33399,-0.5803 -1.15452,-2.487 -1.63117,-2.8339 -2.6849,-1.9539 -5.57258,-6.3058 -8.69735,-6.1185 -0.72099,0.043 -1.58834,0.35 -2.30663,0.2636 -0.92111,-0.1108 -2.21097,0.1527 -2.8547,0.7726 z"
       inkscape:path-effect="#path-effect5728"
       id="use5377"
       d="m 157.58009,1018.3721 c 0.71014,2.7945 1.84105,5.4817 3.34283,7.943 0.43881,0.7192 0.91006,1.4205 1.44912,2.068 0.82618,0.9923 1.81829,1.8591 2.96472,2.4532 1.49477,0.7747 3.23672,1.0631 4.90139,0.8114 1.66467,-0.2516 3.24358,-1.0419 4.44263,-2.2237 -0.5182,-1.0547 -1.05526,-2.1002 -1.61084,-3.1357 -0.51541,-0.9607 -1.04712,-1.9134 -1.63117,-2.8339 -0.99048,-1.5611 -2.14604,-3.0429 -3.60423,-4.1795 -1.4582,-1.1366 -3.24447,-1.9125 -5.09312,-1.939 -0.77535,-0.011 -1.54701,0.1079 -2.30663,0.2636 -0.96633,0.1981 -1.92035,0.4563 -2.8547,0.7726"
       style="color:#000000;fill:#beff00;fill-opacity:1;stroke:#beff00;stroke-width:5.85031462;stroke-linecap:butt;stroke-linejoin:miter;stroke-miterlimit:4;stroke-opacity:1;stroke-dasharray:none;stroke-dashoffset:0;marker:none;visibility:visible;display:inline;overflow:visible;enable-background:accumulate" />
    <path
       inkscape:connector-curvature="0"
       inkscape:original-d="m 209.87312,1016.5344 c -1.7937,-0.4437 -6.16405,-0.85 -8.05545,0.4371 -0.45788,0.3116 -1.74422,0.3305 -2.28007,0.6239 -1.10274,0.6036 -2.05746,1.2681 -3.0982,1.8378 -2.52465,1.3819 -2.72594,6.6674 -1.70665,8.6803 1.01695,0.091 2.19701,-0.2356 3.27207,-0.4292 0.61681,-0.111 2.55622,-0.2319 3.01244,-0.5424 2.56992,-1.7489 7.31699,-2.9191 8.13878,-5.7319 0.18962,-0.649 0.19324,-1.5103 0.49623,-2.1159 0.38857,-0.7768 0.56381,-1.9966 0.22085,-2.7597 z"
       inkscape:path-effect="#path-effect5732"
       id="use5379"
       d="m 209.87312,1016.5344 c -2.6869,-0.2569 -5.41212,-0.109 -8.05545,0.4371 -0.77237,0.1596 -1.53925,0.3533 -2.28007,0.6239 -1.13541,0.4147 -2.21254,1.0152 -3.0982,1.8378 -1.15477,1.0726 -1.95908,2.5165 -2.26313,4.063 -0.30404,1.5464 -0.10627,3.1874 0.55648,4.6173 1.09313,-0.1235 2.18405,-0.2666 3.27207,-0.4292 1.00932,-0.1508 2.01679,-0.3185 3.01244,-0.5424 1.68856,-0.3798 3.35932,-0.9301 4.82149,-1.8561 1.46217,-0.926 2.71006,-2.2551 3.31729,-3.8758 0.25468,-0.6797 0.39355,-1.3973 0.49623,-2.1159 0.13062,-0.9141 0.20443,-1.8364 0.22085,-2.7597"
       style="color:#000000;fill:#beff00;fill-opacity:1;stroke:#beff00;stroke-width:5.47661257;stroke-linecap:butt;stroke-linejoin:miter;stroke-miterlimit:4;stroke-opacity:1;stroke-dasharray:none;stroke-dashoffset:0;marker:none;visibility:visible;display:inline;overflow:visible;enable-background:accumulate" />
    <path
       inkscape:connector-curvature="0"
       inkscape:original-d="m 226.3984,1034.3308 c 1.02159,1.7592 4.0448,5.5289 6.511,6.0407 0.59705,0.1239 1.59649,1.1275 2.23875,1.3271 1.3217,0.4107 2.57825,0.6578 3.82562,1.0455 3.02592,0.9404 7.36303,-2.9455 8.17597,-5.2927 -0.70599,-0.8747 -1.86788,-1.5584 -2.84385,-2.2611 -0.55996,-0.4032 -2.13991,-1.8456 -2.73479,-1.969 -3.35093,-0.6954 -7.91015,-3.5568 -10.76524,-2.0544 -0.65877,0.3466 -1.34313,1.0029 -2.05438,1.2266 -0.9121,0.287 -2.01165,1.0819 -2.35308,1.9373 z"
       inkscape:path-effect="#path-effect5736"
       id="use5381"
       d="m 226.3984,1034.3308 c 1.85316,2.323 4.05587,4.3666 6.511,6.0407 0.71739,0.4892 1.45766,0.9478 2.23875,1.3271 1.19712,0.5813 2.49676,0.9741 3.82562,1.0455 1.73264,0.093 3.49102,-0.3755 4.9476,-1.3184 1.45658,-0.943 2.60394,-2.3554 3.22837,-3.9743 -0.93437,-0.7706 -1.88252,-1.5244 -2.84385,-2.2611 -0.89181,-0.6834 -1.79555,-1.3524 -2.73479,-1.969 -1.59288,-1.0457 -3.30709,-1.9468 -5.15901,-2.3953 -1.85192,-0.4484 -3.85881,-0.4189 -5.60623,0.3409 -0.73288,0.3187 -1.40709,0.7579 -2.05438,1.2266 -0.82345,0.5962 -1.60982,1.2437 -2.35308,1.9373"
       style="color:#000000;fill:#beff00;fill-opacity:1;stroke:#beff00;stroke-width:6.02945375;stroke-linecap:butt;stroke-linejoin:miter;stroke-miterlimit:4;stroke-opacity:1;stroke-dasharray:none;stroke-dashoffset:0;marker:none;visibility:visible;display:inline;overflow:visible;enable-background:accumulate" />
    <path
       inkscape:connector-curvature="0"
       inkscape:original-d="m 252.96648,1047.7123 c 0.0788,-1.9674 -0.43352,-6.6165 -2.18238,-8.315 -0.4234,-0.4112 -0.71877,-1.7499 -1.13979,-2.2464 -0.86642,-1.0217 -1.7646,-1.8759 -2.58227,-2.8402 -1.98357,-2.3393 -7.54394,-1.4168 -9.42667,0.078 0.12254,1.0811 0.71669,2.2428 1.14911,3.3236 0.2481,0.62 0.78985,2.6186 1.2117,3.0283 2.37624,2.3078 4.61498,7.0123 7.72726,7.2674 0.71811,0.059 1.61787,-0.1219 2.31505,0.065 0.89404,0.2392 2.20495,0.1607 2.92799,-0.3608 z"
       inkscape:path-effect="#path-effect5740"
       id="use5383"
       d="m 252.96648,1047.7123 c -0.30769,-2.8597 -1.04601,-5.6728 -2.18238,-8.315 -0.33205,-0.7721 -0.69864,-1.5311 -1.13979,-2.2464 -0.67612,-1.0963 -1.53381,-2.092 -2.58227,-2.8402 -1.36703,-0.9756 -3.04663,-1.5058 -4.726,-1.4919 -1.67937,0.014 -3.34997,0.5719 -4.70067,1.5699 0.36318,1.1146 0.7463,2.2227 1.14911,3.3236 0.37367,1.0213 0.76456,2.037 1.2117,3.0283 0.7583,1.6812 1.69086,3.3072 2.97083,4.635 1.27997,1.3277 2.93461,2.3455 4.75643,2.6324 0.76411,0.1203 1.54293,0.1117 2.31505,0.065 0.98222,-0.059 1.96073,-0.18 2.92799,-0.3608 l 0,10e-5"
       style="color:#000000;fill:#beff00;fill-opacity:1;stroke:#beff00;stroke-width:5.83597565;stroke-linecap:butt;stroke-linejoin:miter;stroke-miterlimit:4;stroke-opacity:1;stroke-dasharray:none;stroke-dashoffset:0;marker:none;visibility:visible;display:inline;overflow:visible;enable-background:accumulate" />
    <path
       inkscape:connector-curvature="0"
       inkscape:original-d="m 254.53889,1036.7591 c -0.9529,0.8611 -2.88575,3.2217 -2.8792,4.8119 0.002,0.385 -0.48749,1.1336 -0.52673,1.5564 -0.0808,0.8701 -0.069,1.6785 -0.14519,2.4997 -0.18493,1.992 2.78263,4.1624 4.33876,4.3574 0.44793,-0.5505 0.7182,-1.3576 1.02452,-2.0523 0.17575,-0.3986 0.85993,-1.5632 0.85834,-1.9468 -0.009,-2.1607 1.16188,-5.3511 -0.13962,-6.918 -0.3003,-0.3615 -0.79518,-0.6984 -1.02644,-1.1084 -0.29656,-0.5258 -0.93141,-1.101 -1.50444,-1.1999 z"
       inkscape:path-effect="#path-effect5744"
       id="use5385"
       d="m 254.53889,1036.7591 c -1.19237,1.4485 -2.16643,3.0764 -2.8792,4.8119 -0.20827,0.5071 -0.39468,1.0243 -0.52673,1.5564 -0.20238,0.8155 -0.27499,1.6696 -0.14519,2.4997 0.16923,1.0823 0.68871,2.1071 1.46168,2.8834 0.77296,0.7763 1.79548,1.3001 2.87708,1.474 0.35372,-0.6779 0.6953,-1.3622 1.02452,-2.0523 0.30542,-0.6402 0.60039,-1.286 0.85834,-1.9468 0.43746,-1.1207 0.76975,-2.2974 0.80445,-3.4999 0.0347,-1.2025 -0.24614,-2.4382 -0.94407,-3.4181 -0.29272,-0.411 -0.65225,-0.7699 -1.02644,-1.1084 -0.47601,-0.4306 -0.97878,-0.8316 -1.50444,-1.1999"
       style="color:#000000;fill:#beff00;fill-opacity:1;stroke:#beff00;stroke-width:3.80676198;stroke-linecap:butt;stroke-linejoin:miter;stroke-miterlimit:4;stroke-opacity:1;stroke-dasharray:none;stroke-dashoffset:0;marker:none;visibility:visible;display:inline;overflow:visible;enable-background:accumulate" />
    <path
       inkscape:connector-curvature="0"
       inkscape:original-d="m 172.15332,1038.9649 c 0.46536,1.2923 2.01657,4.1627 3.59266,4.8016 0.38156,0.1547 0.92379,0.9424 1.3262,1.1528 0.82813,0.433 1.63282,0.7494 2.41437,1.1581 1.89593,0.9914 5.24771,-1.0641 6.07216,-2.5246 -0.36291,-0.6666 -1.05181,-1.2616 -1.61491,-1.8466 -0.32308,-0.3357 -1.19771,-1.4852 -1.57788,-1.6393 -2.1415,-0.8681 -4.82307,-3.3212 -6.90158,-2.6693 -0.47959,0.1504 -1.01369,0.5033 -1.51325,0.5657 -0.64061,0.08 -1.4673,0.4748 -1.79777,1.0016 z"
       inkscape:path-effect="#path-effect5748"
       id="use5387"
       d="m 172.15332,1038.9649 c 0.94934,1.7676 2.16476,3.392 3.59266,4.8016 0.41722,0.4119 0.85335,0.8062 1.3262,1.1528 0.72471,0.5312 1.54035,0.9496 2.41437,1.1581 1.13959,0.2718 2.36433,0.1737 3.44611,-0.2761 1.08178,-0.4498 2.01508,-1.2489 2.62605,-2.2485 -0.52723,-0.6251 -1.06565,-1.2408 -1.61491,-1.8466 -0.50953,-0.562 -1.02874,-1.1159 -1.57788,-1.6393 -0.9313,-0.8876 -1.96073,-1.6939 -3.13647,-2.2162 -1.17574,-0.5223 -2.51234,-0.7459 -3.76511,-0.4531 -0.52542,0.1228 -1.02649,0.3329 -1.51325,0.5657 -0.61922,0.2962 -1.22002,0.6309 -1.79777,1.0016"
       style="color:#000000;fill:#beff00;fill-opacity:1;stroke:#beff00;stroke-width:4.07105207;stroke-linecap:butt;stroke-linejoin:miter;stroke-miterlimit:4;stroke-opacity:1;stroke-dasharray:none;stroke-dashoffset:0;marker:none;visibility:visible;display:inline;overflow:visible;enable-background:accumulate" />
    <path
       inkscape:connector-curvature="0"
       inkscape:original-d="m 91.198369,1020.6582 c -1.80813,0.5818 -5.848791,2.5894 -6.806541,4.7373 -0.23185,0.52 -1.34627,1.232 -1.65617,1.7782 -0.63776,1.124 -1.11322,2.2211 -1.71513,3.2818 -1.46012,2.5733 1.22148,7.3032 3.20091,8.5119 0.93852,-0.4699 1.79347,-1.3938 2.62874,-2.1442 0.47923,-0.4306 2.109511,-1.5848 2.340531,-2.1029 1.30133,-2.9185 4.819,-6.5082 4.01672,-9.4117 -0.18511,-0.67 -0.64757,-1.4249 -0.71013,-2.1183 -0.0802,-0.8891 -0.58652,-2.0504 -1.29893,-2.5321 z"
       inkscape:path-effect="#path-effect5752"
       id="use5389"
       d="m 91.198369,1020.6582 c -2.488012,1.2281 -4.790722,2.8308 -6.806541,4.7373 -0.589017,0.5571 -1.154742,1.1411 -1.65617,1.7782 -0.768497,0.9764 -1.385547,2.0838 -1.71513,3.2818 -0.429732,1.5621 -0.352255,3.2594 0.217999,4.7758 0.570253,1.5164 1.63038,2.8443 2.982911,3.7361 0.888943,-0.699 1.765377,-1.4139 2.62874,-2.1442 0.80093,-0.6775 1.59111,-1.3688 2.340531,-2.1029 1.270967,-1.245 2.434183,-2.6294 3.21189,-4.2296 0.777707,-1.6001 1.15016,-3.4368 0.80483,-5.1821 -0.144839,-0.732 -0.411384,-1.4345 -0.71013,-2.1183 -0.380022,-0.8698 -0.814111,-1.716 -1.29893,-2.5321"
       style="color:#000000;fill:#beff00;fill-opacity:1;stroke:#beff00;stroke-width:5.62974024;stroke-linecap:butt;stroke-linejoin:miter;stroke-miterlimit:4;stroke-opacity:1;stroke-dasharray:none;stroke-dashoffset:0;marker:none;visibility:visible;display:inline;overflow:visible;enable-background:accumulate" />
    <path
       inkscape:connector-curvature="0"
       inkscape:original-d="m 79.561788,1017.4108 c -1.82873,0.9544 -5.7857,3.8443 -6.417,6.3191 -0.15281,0.5991 -1.21512,1.5656 -1.44668,2.2071 -0.47654,1.32 -0.78429,2.5816 -1.23406,3.8274 -1.09104,3.0221 2.64673,7.5933 4.98719,8.5241 0.91841,-0.6751 1.66414,-1.8208 2.42059,-2.7772 0.43401,-0.5488 1.9674,-2.0833 2.11967,-2.6802 0.85776,-3.3626 3.96481,-7.85 2.57359,-10.8109 -0.321,-0.6832 -0.95445,-1.4064 -1.14857,-2.1371 -0.24891,-0.9371 -1.00383,-2.0873 -1.85473,-2.4723 z"
       inkscape:path-effect="#path-effect5756"
       id="use5391"
       d="m 79.561788,1017.4108 c -2.437956,1.7709 -4.608878,3.9087 -6.417,6.3191 -0.528325,0.7043 -1.026777,1.4332 -1.44668,2.2071 -0.643556,1.1861 -1.100975,2.4846 -1.23406,3.8274 -0.173522,1.7508 0.220673,3.5534 1.109159,5.072 0.888486,1.5186 2.266737,2.7455 3.878031,3.4521 0.82335,-0.9112 1.630386,-1.8371 2.42059,-2.7772 0.733072,-0.8721 1.452107,-1.757 2.11967,-2.6802 1.132135,-1.5657 2.123386,-3.2609 2.662423,-5.1163 0.539038,-1.8555 0.600907,-3.8898 -0.08883,-5.6946 -0.289279,-0.757 -0.703414,-1.46 -1.14857,-2.1371 -0.56631,-0.8614 -1.18614,-1.6876 -1.85473,-2.4723"
       style="color:#000000;fill:#beff00;fill-opacity:1;stroke:#beff00;stroke-width:6.11388302;stroke-linecap:butt;stroke-linejoin:miter;stroke-miterlimit:4;stroke-opacity:1;stroke-dasharray:none;stroke-dashoffset:0;marker:none;visibility:visible;display:inline;overflow:visible;enable-background:accumulate" />
    <path
       inkscape:connector-curvature="0"
       inkscape:original-d="m 68.447208,1028.9062 c 1.09332,0.3713 3.79294,0.8556 5.03872,0.1543 0.30158,-0.1698 1.1035,-0.1135 1.45266,-0.2678 0.71856,-0.3174 1.34817,-0.6806 2.02632,-0.9802 1.64508,-0.7269 2.05019,-4.0071 1.52209,-5.3143 -0.62835,-0.1108 -1.3804,0.03 -2.06001,0.094 -0.38992,0.036 -1.60386,0.01 -1.90435,0.1782 -1.69269,0.9529 -4.71031,1.4302 -5.37087,3.1381 -0.15242,0.3941 -0.20026,0.9301 -0.42098,1.2912 -0.28305,0.463 -0.45673,1.2133 -0.28358,1.7065 z"
       inkscape:path-effect="#path-effect5760"
       id="use5393"
       d="m 68.447208,1028.9062 c 1.659341,0.3022 3.363995,0.3544 5.03872,0.1543 0.489342,-0.059 0.977084,-0.1386 1.45266,-0.2678 0.728879,-0.1981 1.431325,-0.5149 2.02632,-0.9802 0.775802,-0.6067 1.353056,-1.4632 1.624224,-2.4099 0.271168,-0.9468 0.234869,-1.979 -0.102134,-2.9044 -0.687157,0.019 -1.373973,0.05 -2.06001,0.094 -0.636417,0.04 -1.272573,0.091 -1.90435,0.1782 -1.071461,0.1471 -2.140869,0.4013 -3.100279,0.9005 -0.959409,0.4991 -1.806721,1.2606 -2.270591,2.2376 -0.194555,0.4098 -0.31901,0.8492 -0.42098,1.2912 -0.129711,0.5622 -0.224481,1.1325 -0.28358,1.7065"
       style="color:#000000;fill:#beff00;fill-opacity:1;stroke:#beff00;stroke-width:3.42221284;stroke-linecap:butt;stroke-linejoin:miter;stroke-miterlimit:4;stroke-opacity:1;stroke-dasharray:none;stroke-dashoffset:0;marker:none;visibility:visible;display:inline;overflow:visible;enable-background:accumulate" />
    <path
       inkscape:connector-curvature="0"
       inkscape:original-d="m 26.357514,1034.9128 c -1.365,0.2637 -4.47763,1.367 -5.36249,2.8435 -0.2142,0.3575 -1.0866,0.7768 -1.35982,1.1464 -0.56228,0.7606 -1.00426,1.516 -1.53493,2.2338 -1.28731,1.7413 0.24515,5.414 1.57712,6.4665 0.72328,-0.2589 1.42578,-0.855 2.09871,-1.3269 0.3861,-0.2707 1.67222,-0.966 1.88566,-1.3221 1.20229,-2.0062 4.07406,-4.3051 3.74652,-6.4854 -0.0756,-0.5031 -0.3452,-1.0923 -0.32967,-1.6016 0.0199,-0.6532 -0.24582,-1.5415 -0.7211,-1.9542 z"
       inkscape:path-effect="#path-effect5764"
       id="use5395"
       d="m 26.357514,1034.9128 c -1.915873,0.6735 -3.730049,1.6355 -5.36249,2.8435 -0.476994,0.353 -0.939436,0.7276 -1.35982,1.1464 -0.644298,0.6419 -1.190068,1.3923 -1.53493,2.2338 -0.449646,1.0972 -0.542646,2.3374 -0.261677,3.4894 0.280969,1.152 0.934476,2.2101 1.838797,2.9771 0.707397,-0.4298 1.407115,-0.8722 2.09871,-1.3269 0.641563,-0.4219 1.276537,-0.8546 1.88566,-1.3221 1.03304,-0.7928 2.00005,-1.6964 2.705907,-2.7907 0.705856,-1.0943 1.138039,-2.3962 1.040613,-3.6947 -0.04086,-0.5446 -0.172749,-1.0785 -0.32967,-1.6016 -0.199627,-0.6655 -0.440611,-1.3186 -0.7211,-1.9542"
       style="color:#000000;fill:#beff00;fill-opacity:1;stroke:#beff00;stroke-width:4.12055683;stroke-linecap:butt;stroke-linejoin:miter;stroke-miterlimit:4;stroke-opacity:1;stroke-dasharray:none;stroke-dashoffset:0;marker:none;visibility:visible;display:inline;overflow:visible;enable-background:accumulate" />
    <path
       inkscape:connector-curvature="0"
       inkscape:original-d="m 13.378534,1049.1334 c 1.03563,-1.0567 3.09346,-3.9061 2.97491,-5.7342 -0.0287,-0.4426 0.48145,-1.3376 0.49706,-1.8265 0.0321,-1.0062 -0.0379,-1.935 -0.008,-2.8846 0.0736,-2.3036 -3.490348,-4.5922 -5.293369,-4.7078 -0.476649,0.6643 -0.731095,1.6113 -1.034836,2.4316 -0.174272,0.4706 -0.8797196,1.8575 -0.8511226,2.2985 0.161073,2.484 -0.962519,6.2344 0.6434716,7.9453 0.370554,0.3948 0.963135,0.7476 1.257692,1.203 0.377724,0.5839 1.14789,1.2009 1.813734,1.2747 z"
       inkscape:path-effect="#path-effect5768"
       id="use5397"
       d="m 13.378534,1049.1334 c 1.26994,-1.7489 2.276368,-3.6888 2.97491,-5.7342 0.204113,-0.5977 0.3824,-1.2054 0.49706,-1.8265 0.175735,-0.9519 0.199371,-1.9391 -0.008,-2.8846 -0.270367,-1.2327 -0.939315,-2.3747 -1.88231,-3.2133 -0.942995,-0.8387 -2.155241,-1.3698 -3.411059,-1.4945 -0.3594,0.8043 -0.704419,1.615 -1.034836,2.4316 -0.306511,0.7575 -0.600633,1.5206 -0.8511226,2.2985 -0.4248155,1.3192 -0.7247509,2.6955 -0.6806942,4.0807 0.044057,1.3852 0.4532586,2.7865 1.3241658,3.8646 0.365285,0.4522 0.803772,0.8399 1.257692,1.203 0.577407,0.4619 1.183541,0.8879 1.813734,1.2747 l 4.6e-4,0"
       style="color:#000000;fill:#beff00;fill-opacity:1;stroke:#beff00;stroke-width:4.38549662;stroke-linecap:butt;stroke-linejoin:miter;stroke-miterlimit:4;stroke-opacity:1;stroke-dasharray:none;stroke-dashoffset:0;marker:none;visibility:visible;display:inline;overflow:visible;enable-background:accumulate" />
  </g>
</svg>
